Poster: 
http://imgr.us/images/b2vh948vaeaixe5wd4qj.jpg

Info:

Format : MPEG-4
Format profile : Base Media
Codec ID : isom
File size : 2.09 GiB
Duration : 2h 17mn
Overall bit rate : 2 178 Kbps
Writing application : Lavf53.24.0

Video
ID : 1
Format : AVC
Format/Info : Advanced Video Codec
Format profile : Main@L4.1
Format settings, CABAC : Yes
Format settings, ReFrames : 3 frames
Codec ID : avc1
Codec ID/Info : Advanced Video Coding
Duration : 2h 17mn
Bit rate : 1 981 Kbps
Width : 1 280 pixels
Height : 720 pixels
Display aspect ratio : 16:9
Frame rate mode : Constant
Frame rate : 23.976 fps
Color space : YUV
Chroma subsampling : 4:2:0
Bit depth : 8 bits
Scan type : Progressive
Bits/(Pixel*Frame) : 0.090
Stream size : 1.90 GiB (91%)
Writing library : x264 core 118 r2085 8a62835
Language : Telugu

Audio
ID : 2
Format : AAC
Format/Info : Advanced Audio Codec
Format profile : LC
Codec ID : 40
Duration : 2h 17mn
Bit rate mode : Constant
Bit rate : 192 Kbps
Channel(s) : 2 channels
Channel positions : Front: L R
Sampling rate : 48.0 KHz
Compression mode : Lossy
Delay relative to video : 42ms
Stream size : 189 MiB (9%)
Language : Telugu


Screens: 
http://imgr.us/images/54a0ynyamnbn0iz2cvb.png 
http://imgr.us/images/tas5687v0u3bwpjpd08t.png 
http://imgr.us/images/1sya1m79l42qxlwwovmh.png 
http://imgr.us/images/ntb8f15zoivgl5whoj.png 
http://imgr.us/images/nahc6thegt1mrzwbio.png 
http://imgr.us/images/m6yclw3jv2egkpr54jm0.png






